<svg width="112" height="86" viewBox="0 0 112 86" fill="none" xmlns="http://www.w3.org/2000/svg">
<path d="M24.9867 8.25902C26.7064 6.96794 31.0808 5.47997 33.9972 5.19399C34.6914 5.12598 36.1722 5.09763 37.2879 5.13119C42.2644 5.28041 47.0928 7.07455 50.272 9.95546C50.8891 10.5148 53.0772 13.1963 52.9844 13.2794C52.872 13.3804 49.9197 13.9571 48.7094 14.1147C47.1262 14.3206 46.3161 14.2073 44.4654 13.5209C42.3859 12.7493 42.0544 12.6312 41.0856 12.3152C39.6548 11.8486 37.2759 11.4246 35.6305 11.3431L34.0714 11.2657L35.2593 11.7699C36.4035 12.2555 38.0569 13.188 38.6745 13.6959L39.8624 14.6718C41.6724 16.1584 42.9026 16.5617 45.579 16.5463C47.8733 16.533 49.1698 16.2729 52.2876 15.2008C53.3231 14.8446 54.3567 14.5533 54.5843 14.5533C55.2945 14.5533 61.4592 16.7953 63.5813 17.8252C66.0307 19.0141 67.7097 20.5346 68.3149 22.1119C68.7033 23.1241 68.8321 24.8571 68.6086 26.0609C68.3566 27.4168 67.3886 29.2629 66.2339 30.5897C65.856 31.024 65.7569 31.0727 65.631 30.8866C65.5483 30.7641 65.4787 30.5303 65.4764 30.3669C65.4589 29.0708 64.4783 27.4292 63.3904 26.8741C62.107 26.2193 60.492 25.9875 57.6492 26.0503C54.8669 26.1117 53.1123 26.3498 50.8782 26.9696C49.4043 27.3785 47.052 28.2877 45.6932 28.9737C42.9125 30.3773 38.7818 33.1911 36.3856 35.314C32.2298 38.9955 28.3312 43.5641 25.4759 48.0981C24.6563 49.3999 22.9544 52.4453 22.3967 53.6084C20.5774 57.4025 19.5275 60.0924 18.7754 62.8851C17.9653 65.894 17.9476 65.8887 18.0363 62.6624C18.0799 61.0699 18.1788 58.9985 18.256 58.0594C18.3332 57.1202 18.4704 55.4497 18.5607 54.3472C18.9589 49.486 19.7642 44.1137 20.7087 40.0185C22.0183 34.3396 23.7926 29.3099 27.1479 21.7642C27.7267 20.4627 28.1698 19.3673 28.1326 19.3302C27.7864 18.9839 22.4565 26.1057 20.8175 29.1048C20.1816 30.2685 18.3355 33.9687 18.0395 34.673C15.9358 39.6789 14.5423 44.948 13.8572 50.4866C13.5161 53.2444 13.4282 62.022 13.7094 65.2609C13.9534 68.0711 14.3693 70.8444 14.845 72.8336C15.3286 74.8551 15.5528 76.0262 15.4556 76.0219C15.1865 76.0099 12.4287 70.6485 10.9978 67.3556C8.35861 61.2822 6.74443 55.6848 5.83347 49.4472C5.41475 46.5807 5.45276 39.8192 5.90192 37.2715C6.9918 31.089 8.96472 26.0788 12.61 20.2364C14.3703 17.4152 17.988 13.4284 20.973 11.0204C22.1307 10.0864 24.2389 8.6139 24.4184 8.6139C24.471 8.6139 24.7267 8.45427 24.9867 8.25902Z" fill="#53FF7A"/>
<path d="M42.8321 47.4519C48.8084 44.541 55.7773 42.8071 63.1002 42.4091C64.5628 42.3295 69.9687 42.4661 71.5639 42.6227C76.2701 43.0853 82.4328 44.5615 86.7511 46.2608C90.4274 47.7073 94.2032 49.5775 97.7715 51.7191C98.6609 52.2529 103.069 55.212 103.654 55.6688C104.582 56.3919 107.177 58.5728 107.148 58.6046C107.135 58.6187 106.456 58.4343 105.64 58.1946C101.551 56.9943 94.6761 55.4833 88.1942 54.3605C80.7517 53.071 71.076 52.5558 64.0174 53.0727C53.4896 53.8437 44.4171 56.3208 37.0411 60.4378C36.7961 60.5746 36.1948 60.9094 35.7048 61.1819C32.9035 62.7395 27.8522 66.7064 25.7018 69.0374C25.5085 69.247 25.0366 69.7525 24.6529 70.1609C23.8111 71.057 21.9839 73.2434 21.0542 74.4669C20.3519 75.3911 18.101 78.7455 17.6008 79.6134C16.7689 81.0564 17.6898 77.7428 19.4025 73.1306C23.6169 61.7808 31.7788 52.8354 42.8321 47.4519Z" fill="#53FF7A"/>
<path d="M57.3093 61.3284C59.3038 60.9657 60.3502 60.8286 63.4715 60.5212C63.7981 60.489 65.3633 60.4883 66.9496 60.5195C72.761 60.6337 77.8867 61.6643 84.1109 63.97C85.7651 64.5828 86.7877 64.9967 87.665 65.4088C88.0785 65.603 89.0517 66.0508 89.8275 66.4041C91.6441 67.2311 97.2625 70.1255 97.1906 70.1973C97.1605 70.2276 95.9758 70.0838 94.5581 69.878C78.7476 67.5827 66.2864 67.4443 54.209 69.4297C49.7982 70.1548 46.6431 70.883 41.7927 72.2949C40.1733 72.7663 35.3132 74.5015 33.626 75.2107C29.9507 76.7555 26.4025 78.5108 23.8423 80.0507C23.0347 80.5366 22.3502 80.9103 22.3211 80.8812C22.2225 80.7826 25.1637 77.8869 26.6517 76.6176C34.3049 70.0892 41.3194 66.0744 50.3449 63.0568C52.4666 62.3473 54.5514 61.83 57.3093 61.3284Z" fill="#53FF7A"/>
</svg>
